<svg data-v-fde0c5aa="" xmlns="http://www.w3.org/2000/svg" viewBox="0 0 300 300" class="iconLeft"><!----><defs data-v-fde0c5aa=""><!----></defs><rect data-v-fde0c5aa="" fill="transparent" x="0" y="0" width="300px" height="300px" class="logo-background-square"></rect><defs data-v-fde0c5aa=""><!----></defs><g data-v-fde0c5aa="" id="554ebf03-73a4-4a75-923a-e345885f98ed" fill="#000000" transform="matrix(3.0134756276704584,0,0,3.0134756276704584,146.6401584542633,130.149200151103)"><path d="M5.39 5.36C6.44 5.19 7.08 4.47 7.08 3.40C7.08 1.95 5.67 1.04 3.36 1.04C1.79 1.04 0.81 1.33 0.81 1.78L0.81 9.31C0.81 9.74 1.88 10.05 3.54 10.05C5.91 10.05 7.35 9.09 7.35 7.48C7.35 6.26 6.61 5.50 5.39 5.36ZM3.51 2.41C4.80 2.41 5.43 2.77 5.43 3.54C5.43 4.33 4.80 4.72 3.54 4.72L2.46 4.72L2.46 2.49C2.72 2.44 3.07 2.41 3.51 2.41ZM3.75 8.67C3.18 8.67 2.73 8.62 2.45 8.55L2.45 6.08L3.57 6.08C4.98 6.08 5.70 6.48 5.70 7.38C5.70 8.26 5.05 8.67 3.75 8.67ZM11.55 10.05C13.64 10.05 14.85 8.82 14.85 6.72C14.85 4.61 13.64 3.36 11.55 3.36C9.46 3.36 8.25 4.61 8.25 6.72C8.25 8.82 9.46 10.05 11.55 10.05ZM11.55 8.82C10.50 8.82 9.88 8.06 9.88 6.72C9.88 5.35 10.50 4.59 11.55 4.59C12.60 4.59 13.22 5.35 13.22 6.72C13.22 8.06 12.60 8.82 11.55 8.82ZM19.11 10.05C21.20 10.05 22.41 8.82 22.41 6.72C22.41 4.61 21.20 3.36 19.11 3.36C17.02 3.36 15.81 4.61 15.81 6.72C15.81 8.82 17.02 10.05 19.11 10.05ZM19.11 8.82C18.06 8.82 17.44 8.06 17.44 6.72C17.44 5.35 18.06 4.59 19.11 4.59C20.16 4.59 20.78 5.35 20.78 6.72C20.78 8.06 20.16 8.82 19.11 8.82ZM29.29 8.50C28.45 8.79 28.03 8.16 27.62 7.50C27.44 7.20 27.26 6.89 27.05 6.65C28.00 5.80 28.83 4.90 29.69 3.81C30.11 3.28 28.29 3.26 27.86 3.81C26.92 4.96 26.26 5.60 25.23 6.43L25.23 0.63C25.23-0.03 23.59 0.67 23.59 1.33L23.59 9.63C23.59 10.19 25.23 10.19 25.23 9.63L25.23 8.12C25.49 7.92 25.73 7.74 25.98 7.55C26.24 7.84 26.46 8.19 26.70 8.54C27.29 9.48 27.90 10.39 29.33 9.90C29.92 9.69 29.85 8.29 29.29 8.50ZM35.88 3.82C35.36 5.26 34.75 6.72 34.06 8.11C33.15 6.59 32.56 5.38 32.07 3.84C31.86 3.21 30.11 3.22 30.34 3.84C31.04 5.81 31.99 7.64 33.29 9.60C33.14 9.90 32.98 10.18 32.83 10.46C32.44 11.14 32.09 11.42 31.70 11.42C31.51 11.42 31.32 11.37 31.11 11.24C30.53 10.92 30.41 12.26 30.90 12.53C31.26 12.71 31.63 12.81 31.99 12.81C32.72 12.81 33.43 12.40 34.06 11.33C35.53 8.82 36.72 6.34 37.60 3.82C37.81 3.23 36.08 3.22 35.88 3.82Z"></path></g><defs data-v-fde0c5aa=""><linearGradient data-v-fde0c5aa="" gradientTransform="rotate(25)" id="e20da2d8-50cc-404c-af41-0fc79202e4e9" x1="0%" y1="0%" x2="100%" y2="0%"><stop data-v-fde0c5aa="" offset="0%" stop-color="#41E296" stop-opacity="1"></stop><stop data-v-fde0c5aa="" offset="100%" stop-color="#00C4EE" stop-opacity="1"></stop></linearGradient></defs><g data-v-fde0c5aa="" id="8cfe3762-93bf-437d-bad5-e6effa52b806" stroke="none" fill="url(#e20da2d8-50cc-404c-af41-0fc79202e4e9)" transform="matrix(3.002533553745658,0,0,3.002533553745658,40,101.95946314006947)"><path d="M16 19.586l7.496-12.954H8.504zM7.496 12.414L0 25.368h14.992zM24.504 12.414l-7.496 12.954H32z"></path></g><!----></svg>